<svg id="visual" viewBox="0 0 960 540" width="960" height="540" xmlns="http://www.w3.org/2000/svg" xmlns:xlink="http://www.w3.org/1999/xlink" version="1.1"><rect x="0" y="0" width="960" height="540" fill="#FFFFFF"></rect><path d="M0 357L26.7 355.3C53.3 353.7 106.7 350.3 160 361.5C213.3 372.7 266.7 398.3 320 405.7C373.3 413 426.7 402 480 387.7C533.3 373.3 586.7 355.7 640 359.3C693.3 363 746.7 388 800 392.8C853.3 397.7 906.7 382.3 933.3 374.7L960 367L960 541L933.3 541C906.7 541 853.3 541 800 541C746.7 541 693.3 541 640 541C586.7 541 533.3 541 480 541C426.7 541 373.3 541 320 541C266.7 541 213.3 541 160 541C106.7 541 53.3 541 26.7 541L0 541Z" fill="#8ab4f8"></path><path d="M0 449L26.7 455.8C53.3 462.7 106.7 476.3 160 482.8C213.3 489.3 266.7 488.7 320 481.5C373.3 474.3 426.7 460.7 480 457C533.3 453.3 586.7 459.7 640 453.7C693.3 447.7 746.7 429.3 800 424.2C853.3 419 906.7 427 933.3 431L960 435L960 541L933.3 541C906.7 541 853.3 541 800 541C746.7 541 693.3 541 640 541C586.7 541 533.3 541 480 541C426.7 541 373.3 541 320 541C266.7 541 213.3 541 160 541C106.7 541 53.3 541 26.7 541L0 541Z" fill="#96d2a6"></path></svg>